PathFileType	4	(X/Y/Z)	38_2_19_p0_0-370_filt_butterworth.trc
DataRate	CameraRate	NumFrames	NumMarkers	Units	OrigDataRate	OrigDataStartFrame	OrigNumFrames
60.0	60.0	7	27	m	60.0	185	370
Frame#	Time	RHip			RKnee			RAnkle			RBigToe			RSmallToe			RHeel			LHip			LKnee			LAnkle			LBigToe			LSmallToe			LHeel			Neck			Head			Nose			RShoulder			RElbow			RWrist			RThumb			RIndex			RPinky			LShoulder			LElbow			LWrist			LThumb			LIndex			LPinky			
		X1	Y1	Z1	X2	Y2	Z2	X3	Y3	Z3	X4	Y4	Z4	X5	Y5	Z5	X6	Y6	Z6	X7	Y7	Z7	X8	Y8	Z8	X9	Y9	Z9	X10	Y10	Z10	X11	Y11	Z11	X12	Y12	Z12	X13	Y13	Z13	X14	Y14	Z14	X15	Y15	Z15	X16	Y16	Z16	X17	Y17	Z17	X18	Y18	Z18	X19	Y19	Z19	X20	Y20	Z20	X21	Y21	Z21	X22	Y22	Z22	X23	Y23	Z23	X24	Y24	Z24	X25	Y25	Z25	X26	Y26	Z26	X27	Y27	Z27	
185	3.083333333333333	0.3814047322593526	0.7287107690782092	0.5312007687954606	0.3970630933197178	0.913616484200241	0.9723255002421637	0.3688199601271402	1.038441823395971	1.359987706152926	0.31621842643383613	0.8744727131047464	1.424661031336098	0.37975900578602473	0.8842770695196044	1.4280491155393442	0.35196651636000736	1.1609566038812538	1.411168087420714	0.1508007074188225	0.7879491110403951	0.5292070564149421	0.16563013298587073	0.9118118758942916	0.9582080720296201	0.18059769718584717	1.048269978152421	1.3286924085858516	0.17186005556428768	0.8998435877638745	1.417136298958261	0.12053002351716592	0.9355058658973258	1.4073495982717459	0.2071227489118881	1.1520984566524906	1.4033283511818497	0.2457114919106339	0.6454823777609311	-0.10151229306123481	0.23253764977004876	0.5481674082915563	-0.3535553529435195	0.21204583249814735	0.483156357790793	-0.1928819395947772	0.4142552500463085	0.6051574597554548	0.007427842626986753	0.4507398857055138	0.6602288731512272	0.281500196784625	0.2860774840265838	0.531903351885643	0.4918218524362452	0.2094009458768572	0.5885338692117795	0.6024090268784446	0.20396447133609447	0.6048164427716497	0.6146927883074005	0.21612534828252056	0.6033126415507587	0.6149661631619996	0.06888524250743504	0.6522471632980902	0.0038012367190284665	0.06090456497012015	0.6626648617879484	0.2874306343068968	0.16876903802260812	0.5993616191600871	0.5130207522004124	0.2523717588445406	0.5910647610206602	0.6105112933509456	0.24116330318043025	0.6117436441845858	0.6347572209779532	0.19979725153829958	0.5859134801554897	0.6127373379616309
186	3.1	0.38130164973487846	0.7284899236163271	0.5306224819995127	0.3970329160531899	0.9136629245541894	0.9724181632459593	0.36882486815966076	1.0384772521874686	1.3599918408348008	0.31604524568338654	0.874278955589551	1.4246422519372692	0.379699360306816	0.8840887983549147	1.4279963170231458	0.35197025228378176	1.1609940996147499	1.4111379194036848	0.1508083704343112	0.7879816875791265	0.5291452370873655	0.16415665289723327	0.9115951690427184	0.9581767033760158	0.1804412501843348	1.0486779017266155	1.3315094240409193	0.17178936739247253	0.8997245965921006	1.4171949135698048	0.12056377952893926	0.9355330829893033	1.4074015312825825	0.2072168226258904	1.1523839245492071	1.4034922014388498	0.24517411179812662	0.6441552225135649	-0.10245609821628268	0.23252458242219654	0.5482146421111749	-0.3535867062143628	0.2120185755216619	0.48317885542210465	-0.19294437114453603	0.4142123154912568	0.6050911756785893	0.00743081559688283	0.45065154233187416	0.660528949760409	0.2827261596567212	0.286067550277704	0.5318412323328972	0.49315841368918756	0.2142023984664722	0.5955431343879352	0.6061856108485655	0.20544641944287137	0.6049362174982363	0.6144580545991244	0.2159262976588017	0.6030364866345251	0.6150369978655137	0.0700030967608475	0.6477286613211072	0.004468092911480549	0.06098019024153136	0.6626623404768781	0.2877638229196673	0.16829378107358603	0.5993461029911662	0.5130159678012026	0.25239884508058297	0.5909298092828983	0.610484502243339	0.24053133823352696	0.6130318746792232	0.6348165406035509	0.20031590404240526	0.582548185873165	0.6126729226079585
187	3.1166666666666667	0.38129496291995	0.7284418464125471	0.5314294807726149	0.3970485032911615	0.9138505030670678	0.9725094295781878	0.36883134418383445	1.0385132223002185	1.3599933247319853	0.3158762677108461	0.8739033393851451	1.425054915020753	0.37965959575265457	0.8840102562408043	1.4279975017663424	0.3519729284469646	1.1610056007075358	1.4111132342761818	0.15081320854023164	0.7880107443777356	0.5291077985419639	0.16296800860623306	0.9112692051008245	0.9582137573323906	0.18045828280115425	1.0488519590341925	1.3334006046506	0.17172631948206388	0.8996082415708199	1.417313682853692	0.12058278458426919	0.9356492710849285	1.4075074302471853	0.20727429123768346	1.1526399584024076	1.4036887836210197	0.243879072015108	0.6409494737735684	-0.10279936457880556	0.23251791326239318	0.5482515451698619	-0.3536010093683969	0.21195026977157394	0.4834282771734232	-0.19306482203695813	0.4141810344447033	0.6050263693890331	0.00743669045052334	0.45057527640405626	0.6607497000202862	0.2836475257350212	0.28616219312022473	0.5318089238608409	0.49422563015216114	0.21615614856737275	0.6010885466804714	0.6070790923674682	0.20641458249050298	0.6051561867001396	0.6142449600104635	0.21541772613751456	0.6030378935726605	0.61507411691975	0.07083227839664559	0.6442147964340177	0.004979543623809441	0.061039661717653265	0.6626421121893122	0.2885979051369389	0.1682421238065838	0.59940427120354	0.5130016486906296	0.25242945175893233	0.5909416068589506	0.6104382379588954	0.23996220413144273	0.6130833162415512	0.6348378619768131	0.2004686115654741	0.58258572156222	0.6127696245001352
188	3.1333333333333333	0.38130676882536396	0.7284383111484136	0.5324774069799809	0.39714329263128273	0.9141661929447538	0.9725066961099864	0.3688347544620302	1.0385356335342366	1.3599913461130686	0.31575879083080377	0.8733863922260623	1.426125922634419	0.37965118513106144	0.8841344526259002	1.4280799577753744	0.35197556451907086	1.160994426295952	1.411099376155323	0.15082954736995552	0.7881457510531219	0.5290930768121616	0.16241271902446708	0.9109434298937569	0.9583211973016325	0.18059861262265156	1.0489402334428772	1.3338963741055498	0.1716941085017337	0.8995195976614118	1.417465577514302	0.1206035368579358	0.9357613795822395	1.407608620511404	0.2072961995132024	1.1528516891807072	1.403907184103448	0.24219048561018278	0.6367825698313453	-0.10245522122875429	0.2325137039230172	0.5482482220898789	-0.3536067461269642	0.21189502093298046	0.4834083835733863	-0.19307630808575577	0.4141737537767495	0.6049989963997878	0.007444151759457256	0.4505308518385176	0.6608371991260901	0.28403707483101115	0.28631227425097017	0.5318266641913842	0.49474118787485427	0.2162821833073476	0.6042272224646562	0.606439941720727	0.20676294887956995	0.6053816689098275	0.6141293324354234	0.2143479338307064	0.6031857995325633	0.6150574571189967	0.07113718487564193	0.6427208843046227	0.005191512587588885	0.06106419484788924	0.6626228785563315	0.2897356093367059	0.16829210230224842	0.5993629145099714	0.5129457045236181	0.2525062974296256	0.5910017231420424	0.6103970321274875	0.2395106985941669	0.6129688016488304	0.6348805292387001	0.20028837728996682	0.5858124120886615	0.6129804858451224
189	3.15	0.3813049428082057	0.7284174496385558	0.5330258889840973	0.397174624906644	0.9140513972457276	0.9721440391793219	0.36883558364908187	1.0385456090850524	1.3599890042481675	0.3158156866513818	0.8732038777986785	1.427527012279287	0.3796719804326544	0.8843567783582554	1.4281998287839681	0.35198077435362923	1.1609798212681908	1.4110945482734676	0.1508833557659768	0.7885159930928292	0.5290916145750545	0.16240458163455385	0.9106867714094338	0.9583630988429599	0.18077074597660311	1.0492295583651985	1.3332899507832485	0.17169697706816855	0.899522280713964	1.417486422123322	0.1206458409132162	0.9357751740017407	1.4076401558113614	0.2072926074677076	1.1529733729734533	1.4039887980425725	0.2409047527982609	0.6336186771588574	-0.10186487818527377	0.23250322278770208	0.5481965115660612	-0.3536195367068242	0.21204269592462827	0.48210990707787477	-0.19274954199775998	0.41418550884121186	0.6050173033269923	0.007451063482248083	0.45054194928946567	0.6608825929445259	0.2840988444591353	0.2864331028374262	0.5318716888488075	0.4948594051762174	0.2159248935309095	0.6051401517872173	0.6058978918934513	0.20679619100028673	0.6054698548576487	0.6141345067300208	0.21294727218355936	0.6032539069130938	0.6149667910066506	0.07113218996745453	0.642572442115451	0.005214777346439736	0.06107788904078218	0.662629352833259	0.2906580679352317	0.16830560775364753	0.5991859083504472	0.5128631593309204	0.25264099011559704	0.5910713761636714	0.6104039052112074	0.23914191326679388	0.613039204811588	0.6348953715742826	0.20056198127939964	0.5902294852703687	0.6132308549992251
190	3.1666666666666665	0.38127232333282585	0.7283905699189299	0.5330995364629271	0.3966883575501945	0.9123858144159145	0.9712725283749649	0.3688357737971923	1.0385425594027624	1.3599907946824874	0.3163906471229927	0.8744842922434791	1.4285724285417851	0.37971103742444523	0.8845214917661732	1.4282873916225407	0.35199054016795667	1.1609561560404675	1.4110955235238436	0.15097788478086302	0.7889447090125264	0.5290842803768909	0.1629427065754445	0.9108562765715081	0.95802789217595	0.18092979038954204	1.0496663078634765	1.3318944087209281	0.17172760608698046	0.8997005417278752	1.4170235121182757	0.12070242535005347	0.93568351258801	1.407587865555484	0.2071923527193654	1.152735371771197	1.4035595640460903	0.240387483088635	0.6323617442224537	-0.10120323579828584	0.23247844366890325	0.5481165897381853	-0.35365073923131946	0.21267482537896962	0.4788393703640186	-0.19197944240963993	0.41420030726909446	0.6050516849801215	0.00745460797947509	0.45063509066397167	0.6609811880591617	0.2840041216139529	0.28649325475866017	0.5319095771700868	0.49482591931971665	0.21568377869434274	0.6049427439923488	0.6061611505584987	0.20675422638653373	0.6053592885128037	0.6142257154744888	0.21184840769916055	0.6033278897037486	0.6148136154272845	0.0710864940028205	0.6427754866696859	0.005194362790429952	0.06107767214805254	0.6626451779807339	0.29104105776406836	0.16828815481302453	0.5989684069655805	0.5127985296333968	0.25264761781978073	0.5912127453212656	0.6104673045539305	0.23867244468211687	0.6132117093371281	0.6347993563479666	0.2011445240987308	0.593418250450992	0.6134044853907934
191	3.183333333333333	0.38119938745956683	0.728363881781136	0.532974808459692	0.3952604999979291	0.9084740635705525	0.9701816922993983	0.36883826341716874	1.0385220680431846	1.3599951727303796	0.3177805709790077	0.8780768356499917	1.4289694663640449	0.3797757407997492	0.8846398441678919	1.428318580922287	0.3520028881035547	1.1609182978773398	1.4111000331461672	0.15102100974944507	0.7884328027924375	0.529045446041557	0.1641201113553969	0.9123126494105563	0.9570318835015822	0.18106783849719008	1.0497296332096953	1.3297122294859316	0.1717773344302106	0.9000904836562529	1.4158071249511734	0.12075516593351197	0.9355275248445589	1.4074755653621707	0.20689664231119465	1.151824762596225	1.4023355793108165	0.24036975254837883	0.6323717628432919	-0.100280490028293	0.23244054790079355	0.5480332331191801	-0.35369242490195124	0.21395076735595164	0.47459369700873566	-0.19102535138108576	0.4142052974599517	0.6050640297950014	0.007454033552773266	0.4507814445038816	0.661093829542804	0.28363201505686053	0.28652284904247804	0.5319304460431584	0.49477870323170786	0.2156137676049596	0.604590618936889	0.6070922652696389	0.20664453103559882	0.6051130603596587	0.6143418064429563	0.2113780785077365	0.6034823843487565	0.6146434275959898	0.0711114205270113	0.6428354242544998	0.005193193203106051	0.061042754292985876	0.6626279036067092	0.2909860002008898	0.16827273966894563	0.598867202366593	0.5127836059176694	0.2521077578279041	0.5914204043779052	0.6104898951886756	0.23818892424938576	0.613265005924068	0.6346274433451959	0.20158997505514403	0.5948623218230138	0.6134525192165338
